<svg width="24" height="24" viewBox="0 0 71 70" fill="none" xmlns="http://www.w3.org/2000/svg">
<path d="M20.5309 6.73077H6.47082C7.8787 22.1904 14.2239 36.5018 24.2803 46.9C34.4178 57.3665 47.5824 63.1247 61.2116 63.0538H64.8203V47.9231L52.9161 43.1846L48.9793 50.8308L46.2141 56.5385L41.1993 53.2C32.2205 47.2122 24.5692 38.9191 18.8437 28.9692L15.4224 22.7769L21.1402 19.3308L25.8269 16.5308L20.7184 6.73077M20.7184 0C21.7291 0.0086806 22.7209 0.315242 23.5989 0.890343C24.477 1.46544 25.2118 2.28984 25.7332 3.28461L30.6542 13.0846C31.0717 13.8679 31.3439 14.7417 31.4541 15.6513C31.5642 16.561 31.5098 17.487 31.2942 18.3714C31.0787 19.2558 30.7067 20.0796 30.2014 20.7914C29.6961 21.5031 29.0685 22.0873 28.3577 22.5077L23.671 25.3077C28.9031 34.3847 35.8982 41.9421 44.1051 47.3846L48.2294 39.7923C48.7121 38.8366 49.3921 38.0321 50.2095 37.4499C51.0269 36.8677 51.9564 36.5256 52.9161 36.4538C53.5707 36.4522 54.2206 36.5797 54.8377 36.8308L66.9762 41.5692C68.0816 42.0717 69.0277 42.9486 69.6891 44.0834C70.3504 45.2183 70.6955 46.5575 70.6787 47.9231V63.2692C70.6787 65.0543 70.0615 66.7663 68.9629 68.0286C67.8642 69.2909 66.3741 70 64.8203 70H61.3053C46.2634 70.0046 31.7518 63.6162 20.5639 52.0646C9.37604 40.513 2.30292 24.6149 0.706161 7.43077C0.627945 6.49154 0.7211 5.54389 0.979675 4.64837C1.23825 3.75284 1.65656 2.92912 2.20787 2.22983C2.75919 1.53053 3.4314 0.971046 4.18156 0.587101C4.93172 0.203157 5.74332 0.00319898 6.56455 0H20.7184Z" fill="#7e7d7f"/>
</svg>
