<svg width="80" height="80" viewBox="0 0 80 80" fill="none" xmlns="http://www.w3.org/2000/svg">
<path d="M22.8571 23.125V16.875C22.8571 15.8438 23.8214 15 25 15H32.1429C33.3214 15 34.2857 15.8438 34.2857 16.875V23.125C34.2857 24.1562 33.3214 25 32.1429 25H25C23.8214 25 22.8571 24.1562 22.8571 23.125ZM47.8571 25H55C56.1786 25 57.1429 24.1562 57.1429 23.125V16.875C57.1429 15.8438 56.1786 15 55 15H47.8571C46.6786 15 45.7143 15.8438 45.7143 16.875V23.125C45.7143 24.1562 46.6786 25 47.8571 25ZM25 40H32.1429C33.3214 40 34.2857 39.1562 34.2857 38.125V31.875C34.2857 30.8438 33.3214 30 32.1429 30H25C23.8214 30 22.8571 30.8438 22.8571 31.875V38.125C22.8571 39.1562 23.8214 40 25 40ZM47.8571 40H55C56.1786 40 57.1429 39.1562 57.1429 38.125V31.875C57.1429 30.8438 56.1786 30 55 30H47.8571C46.6786 30 45.7143 30.8438 45.7143 31.875V38.125C45.7143 39.1562 46.6786 40 47.8571 40ZM34.2857 53.125V46.875C34.2857 45.8438 33.3214 45 32.1429 45H25C23.8214 45 22.8571 45.8438 22.8571 46.875V53.125C22.8571 54.1562 23.8214 55 25 55H32.1429C33.3214 55 34.2857 54.1562 34.2857 53.125ZM47.8571 55H55C56.1786 55 57.1429 54.1562 57.1429 53.125V46.875C57.1429 45.8438 56.1786 45 55 45H47.8571C46.6786 45 45.7143 45.8438 45.7143 46.875V53.125C45.7143 54.1562 46.6786 55 47.8571 55ZM80 74.375V80H0V74.375C0 73.3438 0.964286 72.5 2.14286 72.5H5.625V3.75C5.625 1.67188 7.53571 0 9.91071 0H70.0893C72.4643 0 74.375 1.67188 74.375 3.75V72.5H77.8571C79.0357 72.5 80 73.3438 80 74.375ZM14.1964 72.3438H34.2857V61.875C34.2857 60.8438 35.25 60 36.4286 60H43.5714C44.75 60 45.7143 60.8438 45.7143 61.875V72.3438H65.8036V7.65625L14.2857 7.5L14.1964 72.3438Z" fill="#7e7d7f"/>
</svg>
