<svg width="70" height="70" viewBox="0 0 70 70" fill="none" xmlns="http://www.w3.org/2000/svg">
<path fill-rule="evenodd" clip-rule="evenodd" d="M25 0C22.6794 0 20.4538 0.921872 18.8128 2.56282C17.1719 4.20376 16.25 6.42936 16.25 8.75V15H10C7.34784 15 4.8043 16.0536 2.92893 17.9289C1.05357 19.8043 0 22.3478 0 25V60C0 62.6522 1.05357 65.1957 2.92893 67.0711C4.8043 68.9464 7.34784 70 10 70H60C62.6522 70 65.1957 68.9464 67.0711 67.0711C68.9464 65.1957 70 62.6522 70 60V25C70 22.3478 68.9464 19.8043 67.0711 17.9289C65.1957 16.0536 62.6522 15 60 15H53.75V8.75C53.75 6.42936 52.8281 4.20376 51.1872 2.56282C49.5462 0.921872 47.3206 0 45 0H25ZM46.25 15V8.75C46.25 8.41848 46.1183 8.10054 45.8839 7.86612C45.6495 7.6317 45.3315 7.5 45 7.5H25C24.6685 7.5 24.3505 7.6317 24.1161 7.86612C23.8817 8.10054 23.75 8.41848 23.75 8.75V15H46.25ZM10 22.5H60C60.663 22.5 61.2989 22.7634 61.7678 23.2322C62.2366 23.7011 62.5 24.337 62.5 25V30H7.5V25C7.5 24.337 7.76339 23.7011 8.23223 23.2322C8.70107 22.7634 9.33696 22.5 10 22.5ZM7.5 37.5V60C7.5 60.663 7.76339 61.2989 8.23223 61.7678C8.70107 62.2366 9.33696 62.5 10 62.5H60C60.663 62.5 61.2989 62.2366 61.7678 61.7678C62.2366 61.2989 62.5 60.663 62.5 60V37.5H40V45H30V37.5H7.5Z" fill="black"/>
</svg>
